<svg xmlns="http://www.w3.org/2000/svg" width="800" height="450" viewBox="0 0 800 450" fill="none">
  <rect width="800" height="450" fill="#18181b"/>

  <text x="56" y="86" fill="#fafafa" font-family="system-ui,sans-serif" font-size="38" font-weight="700">Cursors</text>
  <text x="56" y="120" fill="#a1a1aa" font-family="system-ui,sans-serif" font-size="17">One click, the whole scheme.</text>

  <g font-family="ui-monospace,monospace" font-size="12" fill="#71717a">
    <text x="56" y="164">60 packs</text>
    <text x="56" y="188">500 community sets</text>
    <text x="56" y="212">17 cursor roles</text>
    <text x="56" y="236">184 KB</text>
  </g>

  <rect x="56" y="278" width="176" height="40" rx="8" fill="#fafafa"/>
  <text x="144" y="304" text-anchor="middle" fill="#18181b" font-family="system-ui,sans-serif" font-size="14" font-weight="600">Download for Windows</text>

  <rect x="320" y="60" width="424" height="330" rx="14" fill="#27272a" stroke="#3f3f46"/>
  <rect x="320" y="60" width="424" height="34" rx="14" fill="#1f1f22"/>
  <rect x="320" y="80" width="424" height="14" fill="#1f1f22"/>
  <circle cx="340" cy="77" r="5" fill="#ef4444"/>
  <circle cx="358" cy="77" r="5" fill="#eab308"/>
  <circle cx="376" cy="77" r="5" fill="#22c55e"/>
  <text x="732" y="81" text-anchor="end" fill="#71717a" font-family="ui-monospace,monospace" font-size="9">Cursors</text>

  <g>
    <rect x="336" y="110" width="84" height="264" rx="8" fill="#1f1f22"/>
    <rect x="344" y="120" width="68" height="18" rx="4" fill="#3f3f46"/>
    <text x="352" y="133" fill="#e4e4e7" font-family="system-ui,sans-serif" font-size="9">Minimal</text>
    <text x="352" y="157" fill="#71717a" font-family="system-ui,sans-serif" font-size="9">Neon</text>
    <text x="352" y="179" fill="#71717a" font-family="system-ui,sans-serif" font-size="9">Cute</text>
    <text x="352" y="201" fill="#71717a" font-family="system-ui,sans-serif" font-size="9">Retro</text>
    <text x="352" y="223" fill="#71717a" font-family="system-ui,sans-serif" font-size="9">Pixel</text>
    <text x="352" y="245" fill="#71717a" font-family="system-ui,sans-serif" font-size="9">macOS</text>
    <text x="352" y="267" fill="#71717a" font-family="system-ui,sans-serif" font-size="9">Animated</text>
    <text x="352" y="289" fill="#71717a" font-family="system-ui,sans-serif" font-size="9">Glass</text>
  </g>

  <g>
    <g transform="translate(436 110)">
      <rect width="92" height="80" rx="8" fill="#18181b" stroke="#52525b"/>
      <g transform="translate(37 24) scale(1.15)"><path d="M1 1 L1 15.4 L4.6 11.9 L7.1 17.2 L9.6 16.1 L7.1 11 L12 11 Z" fill="#18181b" stroke="#fafafa" stroke-width="1.1" stroke-linejoin="round"/></g>
      <text x="46" y="70" text-anchor="middle" fill="#a1a1aa" font-family="system-ui,sans-serif" font-size="9">Ink</text>
    </g>
    <g transform="translate(540 110)">
      <rect width="92" height="80" rx="8" fill="#232326"/>
      <g transform="translate(37 24) scale(1.15)"><path d="M1 1 L1 15.4 L4.6 11.9 L7.1 17.2 L9.6 16.1 L7.1 11 L12 11 Z" fill="#fafafa" stroke="#18181b" stroke-width="1.1" stroke-linejoin="round"/></g>
      <text x="46" y="70" text-anchor="middle" fill="#a1a1aa" font-family="system-ui,sans-serif" font-size="9">Paper</text>
    </g>
    <g transform="translate(644 110)">
      <rect width="92" height="80" rx="8" fill="#232326"/>
      <g transform="translate(37 24) scale(1.15)"><path d="M1 1 L1 15.4 L4.6 11.9 L7.1 17.2 L9.6 16.1 L7.1 11 L12 11 Z" fill="#a3e635" stroke="#1a2e05" stroke-width="1.1" stroke-linejoin="round"/></g>
      <text x="46" y="70" text-anchor="middle" fill="#a1a1aa" font-family="system-ui,sans-serif" font-size="9">Acid</text>
    </g>

    <g transform="translate(436 202)">
      <rect width="92" height="80" rx="8" fill="#232326"/>
      <g transform="translate(37 24) scale(1.15)"><path d="M1 1 L1 15.4 L4.6 11.9 L7.1 17.2 L9.6 16.1 L7.1 11 L12 11 Z" fill="#f0abfc" stroke="#4a044e" stroke-width="1.1" stroke-linejoin="round"/></g>
      <text x="46" y="70" text-anchor="middle" fill="#a1a1aa" font-family="system-ui,sans-serif" font-size="9">Vapor</text>
    </g>
    <g transform="translate(540 202)">
      <rect width="92" height="80" rx="8" fill="#232326"/>
      <g transform="translate(37 24) scale(1.15)"><path d="M1 1 L1 15.4 L4.6 11.9 L7.1 17.2 L9.6 16.1 L7.1 11 L12 11 Z" fill="#fdba74" stroke="#7c2d12" stroke-width="1.1" stroke-linejoin="round"/></g>
      <text x="46" y="70" text-anchor="middle" fill="#a1a1aa" font-family="system-ui,sans-serif" font-size="9">Peach</text>
    </g>
    <g transform="translate(644 202)">
      <rect width="92" height="80" rx="8" fill="#232326"/>
      <g transform="translate(37 24) scale(1.15)"><path d="M1 1 L1 15.4 L4.6 11.9 L7.1 17.2 L9.6 16.1 L7.1 11 L12 11 Z" fill="#d4d0c8" stroke="#000000" stroke-width="1.1" stroke-linejoin="round"/></g>
      <text x="46" y="70" text-anchor="middle" fill="#a1a1aa" font-family="system-ui,sans-serif" font-size="9">Win95</text>
    </g>
  </g>

  <line x1="336" y1="306" x2="736" y2="306" stroke="#3f3f46"/>
  <text x="336" y="330" fill="#71717a" font-family="ui-monospace,monospace" font-size="10">Applied · all 17 roles</text>
  <g transform="translate(336 344)">
    <g transform="scale(1.1)"><path d="M1 1 L1 15.4 L4.6 11.9 L7.1 17.2 L9.6 16.1 L7.1 11 L12 11 Z" fill="#18181b" stroke="#fafafa" stroke-width="1.1" stroke-linejoin="round"/></g>
    <path d="M32 2 h10 M37 2 v18 M32 20 h10" stroke="#fafafa" stroke-width="1.6" fill="none"/>
    <circle cx="70" cy="11" r="7" fill="none" stroke="#52525b" stroke-width="1.6"/>
    <path d="M70 4 a7 7 0 0 1 7 7" fill="none" stroke="#fafafa" stroke-width="2" stroke-linecap="round"/>
    <path d="M100 11 v-6 a1.5 1.5 0 0 1 3 0 v4 h.8 v-2 a1.4 1.4 0 0 1 2.8 0 v7 a5 5 0 0 1-5 5 h-1 a4.2 4.2 0 0 1-4-3.2 l-1-3.4 a1.4 1.4 0 0 1 2.5-1.1 Z" fill="#18181b" stroke="#fafafa" stroke-width="1.1" stroke-linejoin="round"/>
    <path d="M140 1 v7 M140 15 v7 M132 11 h7 M141 11 h7" stroke="#fafafa" stroke-width="1.6" fill="none"/>
  </g>
</svg>
