<svg xmlns="http://www.w3.org/2000/svg" width="800" height="450" viewBox="0 0 800 450" fill="none">
  <rect width="800" height="450" fill="#f4f4f5"/>
  <rect x="120" y="72" width="560" height="306" rx="14" fill="#ffffff" stroke="#e4e4e7"/>
  <rect x="120" y="72" width="560" height="44" rx="14" fill="#fafafa"/>
  <rect x="120" y="104" width="560" height="12" fill="#fafafa"/>
  <circle cx="148" cy="94" r="6" fill="#ef4444"/>
  <circle cx="168" cy="94" r="6" fill="#fbbf24"/>
  <circle cx="188" cy="94" r="6" fill="#22c55e"/>
  <rect x="156" y="148" width="320" height="10" rx="5" fill="#d4d4d8"/>
  <rect x="156" y="176" width="420" height="10" rx="5" fill="#e4e4e7"/>
  <rect x="156" y="204" width="380" height="10" rx="5" fill="#e4e4e7"/>
  <rect x="156" y="232" width="280" height="10" rx="5" fill="#e4e4e7"/>
  <rect x="156" y="286" width="180" height="56" rx="8" fill="#eef2ff" stroke="#c7d2fe"/>
  <rect x="520" y="132" width="132" height="220" rx="10" fill="#fafafa" stroke="#e4e4e7"/>
  <rect x="536" y="152" width="100" height="56" rx="4" fill="#ffffff" stroke="#d4d4d8"/>
  <rect x="536" y="220" width="100" height="56" rx="4" fill="#ffffff" stroke="#d4d4d8"/>
  <rect x="536" y="288" width="100" height="56" rx="4" fill="#ffffff" stroke="#d4d4d8"/>
  <rect x="248" y="372" width="304" height="36" rx="18" fill="#5b5bd6"/>
  <circle cx="272" cy="390" r="10" fill="none" stroke="#ffffff" stroke-width="2.5"/>
  <path d="M274 392l8 8" stroke="#ffffff" stroke-width="2.5" stroke-linecap="round"/>
  <text x="400" y="392" text-anchor="middle" fill="#ffffff" font-family="system-ui,sans-serif" font-size="18" font-weight="700">Quire</text>
</svg>
